<svg width="866" height="794" viewBox="0 0 866 794" fill="none" xmlns="http://www.w3.org/2000/svg">
<g opacity="0.6">
<path d="M459.335 322.887C448.214 314.712 443.274 304.346 450.668 288.043C475.72 233.021 538.404 184.535 536.292 126.084C535.166 96.0773 513.806 71.0127 480.63 52.8723C323.653 -32.639 155.349 18.3488 102.125 49.5052C47.5779 81.4223 65.6651 135.792 86.3492 170.469C111.808 213.205 145.953 255.265 142.999 304.235C139.871 355.941 146.216 472.857 171.343 522.254C189.071 557.104 239.226 604.131 296.765 606.526C354.304 608.92 417.518 568.465 465.276 543.088C513.033 517.711 681.469 612.227 707.662 576.312C742.882 528.018 689.851 474.197 651.128 440.03C611.859 405.395 564.842 375.036 512.721 348.691C493.394 338.988 472.225 332.396 459.335 322.887Z" stroke="url(#paint0_linear_114_1308)" stroke-opacity="0.3" stroke-width="3">
  <animateTransform attributeName="transform" type="scale" values="1;1.05;1" dur="15s" repeatCount="indefinite"/>
  <animate attributeName="stroke-opacity" values="0.3;0.5;0.3" dur="8s" repeatCount="indefinite"/>
</path>
<path d="M96.1393 41.1887C38.1111 75.1425 57.4337 133.058 79.3713 169.972C106.38 215.467 142.853 260.245 139.591 312.405C136.226 367.45 133.481 480.595 160.261 533.192C179.118 570.347 232.973 615.701 294.283 618.254C349.074 620.536 408.738 584.65 455.216 561.697C503.105 538.061 656.235 618.512 684.805 584.443C724.261 537.271 685.557 483.734 656.392 447.112C627.156 410.339 587.905 377.593 541.659 348.853C524.517 338.213 505.375 330.453 493.145 320.24C482.622 311.579 477.398 301.065 482.394 285.348C489.973 261.663 502.137 239.207 512.897 216.988C522.111 198.039 530.181 179.19 532.864 159.598C534.183 150.097 533.773 140.376 531.714 130.142C525.985 102.348 503.19 78.2139 468.902 59.4527C417.923 31.7002 366.181 15.5455 316.761 8.22817C224.17 -5.55357 137.219 17.1217 96.1393 41.1887Z" stroke="url(#paint1_linear_114_1308)" stroke-opacity="0.3" stroke-width="3">
  <animateTransform attributeName="transform" type="scale" values="1;1.03;1" dur="18s" repeatCount="indefinite"/>
  <animate attributeName="stroke-opacity" values="0.3;0.4;0.3" dur="10s" repeatCount="indefinite"/>
</path>
<path d="M90.0078 32.9403C28.514 68.9264 48.9558 130.376 72.2512 169.526C100.913 217.778 139.482 265.26 136.134 320.613C132.534 378.989 120.709 488.445 149.025 544.23C169.024 583.613 226.654 627.375 291.496 630.077C343.656 632.251 399.795 600.851 444.864 580.385C492.992 558.492 630.947 624.987 661.574 592.672C705.358 546.625 680.696 493.434 661.169 454.368C641.694 415.525 610.535 380.339 570.149 349.208C555.277 337.711 538.155 328.785 526.494 317.792C516.587 308.574 510.99 297.835 513.576 282.774C517.567 259.56 523.871 237.7 528.494 216.287C532.455 198.177 535.306 180.464 533.792 161.977C533.018 153.214 530.559 144.085 526.692 134.379C516.688 108.879 492.044 85.5811 456.869 66.2095C407.497 39.0692 357.654 20.3441 308.839 9.43083C224.075 -9.63978 136.7 5.5862 90.0078 32.9403Z" stroke="url(#paint2_linear_114_1308)" stroke-opacity="0.25" stroke-width="3">
  <animateTransform attributeName="transform" type="scale" values="1.02;1;1.02" dur="20s" repeatCount="indefinite"/>
  <animate attributeName="stroke-opacity" values="0.25;0.4;0.25" dur="12s" repeatCount="indefinite"/>
</path>
<path d="M83.8632 24.7606C18.8934 62.8504 40.4707 127.759 64.9904 169.212C95.3 220.219 136.051 270.479 132.416 328.94C128.69 390.65 107.726 496.357 137.573 555.328C158.712 596.935 219.996 639.109 288.581 641.969C338.011 644.031 390.841 617.187 434.527 599.127C482.875 579.044 605.754 631.473 638.522 600.984C686.732 556.06 675.932 503.28 666.049 461.624C656.411 420.718 633.205 383.09 598.676 349.497C585.956 337.141 570.958 327.054 559.842 315.356C550.549 305.582 544.561 294.688 544.856 280.288C545.271 257.54 545.735 236.272 544.261 215.589C542.968 198.388 540.748 181.739 534.942 164.349C532.212 156.252 527.67 147.859 522.041 138.533C507.886 115.325 481.398 92.8594 445.229 72.8726C397.306 46.4825 349.424 25.342 301.179 10.5427C223.776 -13.0118 136.15 -5.87558 83.8632 24.7606Z" stroke="url(#paint3_linear_114_1308)" stroke-opacity="0.25" stroke-width="3">
  <animateTransform attributeName="transform" type="scale" values="1;1.04;1" dur="22s" repeatCount="indefinite"/>
  <animate attributeName="stroke-opacity" values="0.25;0.35;0.25" dur="14s" repeatCount="indefinite"/>
</path>
<path d="M77.7362 16.6402C9.30748 56.7629 32.0016 125.207 57.8761 168.897C89.7052 222.731 132.678 275.627 128.957 337.282C124.996 402.324 95.0079 504.385 126.516 566.477C148.775 610.385 213.845 650.911 286.046 653.999C332.764 655.949 382.396 633.725 424.533 617.908C473.2 599.706 581.057 638.178 615.914 609.282C668.765 565.481 671.433 513.161 671.271 468.919C671.178 426.084 656.024 385.943 627.308 349.962C616.839 336.75 603.845 325.499 593.271 313.095C584.569 302.836 578.209 291.715 576.129 277.892C572.779 255.524 567.713 235.005 560.052 215.042C553.76 198.68 546.265 183.081 536.029 166.924C531.349 159.492 524.75 151.758 517.215 142.951C499.157 121.963 470.476 100.384 433.419 79.784C386.95 54.0654 340.915 30.8756 293.288 11.9764C223.278 -15.9065 135.741 -17.3452 77.7362 16.6402Z" stroke="url(#paint4_linear_114_1308)" stroke-opacity="0.2" stroke-width="3">
  <animateTransform attributeName="transform" type="scale" values="1.03;1;1.03" dur="17s" repeatCount="indefinite"/>
  <animate attributeName="stroke-opacity" values="0.2;0.35;0.2" dur="9s" repeatCount="indefinite"/>
</path>
<path d="M71.6671 8.5716C-0.240899 50.7354 23.5771 122.729 50.8144 168.664C84.3022 225.268 129.491 280.884 125.482 345.663C121.284 414.05 82.193 512.42 115.333 577.791C138.739 623.936 207.483 662.897 283.451 666.144C327.485 667.983 373.948 650.366 414.538 636.858C463.654 620.533 556.593 645.006 593.29 617.829C650.884 575.215 666.675 523.253 676.429 476.427C685.746 431.649 678.728 388.993 655.836 350.471C647.48 336.468 636.608 323.984 626.7 310.803C618.582 300.057 611.739 288.701 607.489 275.534C600.364 253.613 589.947 233.62 575.962 214.511C564.663 199.057 552.122 184.511 537.392 169.43C530.875 162.663 522.35 155.518 512.8 147.222C491.081 128.381 460.052 107.822 421.892 86.5227C376.853 61.4675 332.234 36.5035 285.519 13.1495C222.438 -18.3422 135.271 -28.6991 71.6671 8.5716Z" stroke="url(#paint5_linear_114_1308)" stroke-opacity="0.2" stroke-width="3">
  <animateTransform attributeName="transform" type="scale" values="1;1.06;1" dur="19s" repeatCount="indefinite"/>
  <animate attributeName="stroke-opacity" values="0.2;0.3;0.2" dur="11s" repeatCount="indefinite"/>
</path>
<path d="M65.8462 0.626535C-9.59558 44.8504 15.3849 120.351 43.8964 168.549C79.0693 227.946 126.399 286.301 122.3 354.315C117.973 426.083 69.7593 520.812 104.468 589.413C129.039 637.815 201.6 675.308 281.193 678.633C322.691 680.366 365.899 667.413 404.996 656.132C454.581 641.747 532.81 652.247 571.394 626.703C633.861 585.332 662.702 533.553 682.366 484.121C700.998 437.303 702.209 392.118 685.185 351.189C678.951 336.318 670.06 322.664 660.788 308.772C653.268 297.463 645.916 285.939 639.497 273.421C628.484 251.93 612.914 232.536 592.531 214.122C576.24 199.494 558.559 185.916 539.4 172.054C530.933 165.944 520.477 159.383 508.887 151.667C483.643 134.821 450.003 115.336 410.929 93.3367C367.282 68.9326 323.652 42.3893 278.287 14.4452C221.377 -20.5489 135.003 -40.0226 65.8462 0.626535Z" stroke="url(#paint6_linear_114_1308)" stroke-opacity="0.2" stroke-width="3">
  <animateTransform attributeName="transform" type="scale" values="1.04;1;1.04" dur="21s" repeatCount="indefinite"/>
  <animate attributeName="stroke-opacity" values="0.2;0.32;0.2" dur="13s" repeatCount="indefinite"/>
</path>
<path d="M60.0332 -7.37094C-18.9963 38.9976 7.24909 118.104 37.1581 168.579C74.0326 230.786 123.635 291.9 119.225 363.157C114.658 438.319 57.3904 529.51 93.7928 601.364C119.412 652.104 195.862 687.992 279.318 691.478C318.19 693.101 358.343 684.962 396.004 675.76C446.152 663.463 509.615 659.915 550.123 635.923C617.453 595.93 659.285 544.17 688.849 492.193C716.695 443.317 726.115 395.665 714.971 352.246C710.856 336.502 703.942 321.674 695.303 307.069C688.247 295.261 680.403 283.494 671.829 271.549C656.885 250.629 636.124 231.532 609.383 214.031C588.223 200.158 565.374 187.616 541.647 175.038C531.335 169.589 518.964 163.537 505.219 156.394C476.458 141.466 440.171 123.123 400.147 100.491C357.909 76.586 314.75 48.657 271.212 15.9151C220.116 -22.604 134.865 -51.3317 60.0332 -7.37094Z" stroke="url(#paint7_linear_114_1308)" stroke-opacity="0.15" stroke-width="3">
  <animateTransform attributeName="transform" type="scale" values="1;1.05;1" dur="16s" repeatCount="indefinite"/>
  <animate attributeName="stroke-opacity" values="0.15;0.28;0.15" dur="10s" repeatCount="indefinite"/>
</path>
<path d="M544.18 177.707C482.474 152.983 367.488 111.491 264.262 17.3364C218.382 -24.5923 134.909 -62.6277 54.2671 -15.3514C-28.3551 33.0973 -0.946037 115.818 30.2602 168.577C68.7383 233.599 120.63 297.483 116.127 372.005C111.429 450.58 44.9945 538.167 82.993 613.283C109.797 666.301 190.143 700.662 277.376 704.305C364.61 707.947 456.231 683.572 528.647 645.033C601.082 606.42 655.615 554.584 695.315 500.061C775.822 389.364 764.781 283.26 626.442 213.625C600.402 200.504 572.375 188.999 544.18 177.707Z" stroke="url(#paint8_linear_114_1308)" stroke-opacity="0.15" stroke-width="3">
  <animateTransform attributeName="transform" type="scale" values="1.05;1;1.05" dur="24s" repeatCount="indefinite"/>
  <animate attributeName="stroke-opacity" values="0.15;0.3;0.15" dur="15s" repeatCount="indefinite"/>
</path>
</g>
<defs>
<linearGradient id="paint0_linear_114_1308" x1="476.068" y1="13.0842" x2="451.105" y2="612.949" gradientUnits="userSpaceOnUse">
<stop stop-color="#FFD700"/>
<stop offset="1" stop-color="#FFA500"/>
</linearGradient>
<linearGradient id="paint1_linear_114_1308" x1="462.563" y1="12.154" x2="437.075" y2="624.201" gradientUnits="userSpaceOnUse">
<stop stop-color="#DAA520"/>
<stop offset="1" stop-color="#FFD700"/>
</linearGradient>
<linearGradient id="paint2_linear_114_1308" x1="449.944" y1="9.73387" x2="423.86" y2="635.594" gradientUnits="userSpaceOnUse">
<stop stop-color="#FFD700"/>
<stop offset="1" stop-color="#FFEB3B"/>
</linearGradient>
<linearGradient id="paint3_linear_114_1308" x1="438.941" y1="5.98937" x2="412.198" y2="647.126" gradientUnits="userSpaceOnUse">
<stop stop-color="#FFA500"/>
<stop offset="1" stop-color="#FFD700"/>
</linearGradient>
<linearGradient id="paint4_linear_114_1308" x1="430.396" y1="1.13105" x2="402.939" y2="658.878" gradientUnits="userSpaceOnUse">
<stop stop-color="#DAA520"/>
<stop offset="1" stop-color="#FFA500"/>
</linearGradient>
<linearGradient id="paint5_linear_114_1308" x1="425.504" y1="-4.62801" x2="397.288" y2="670.899" gradientUnits="userSpaceOnUse">
<stop stop-color="#FFEB3B"/>
<stop offset="1" stop-color="#FFD700"/>
</linearGradient>
<linearGradient id="paint6_linear_114_1308" x1="426.868" y1="-10.8984" x2="397.86" y2="683.506" gradientUnits="userSpaceOnUse">
<stop stop-color="#FFD700"/>
<stop offset="1" stop-color="#DAA520"/>
</linearGradient>
<linearGradient id="paint7_linear_114_1308" x1="431.923" y1="-17.5801" x2="402.093" y2="696.606" gradientUnits="userSpaceOnUse">
<stop stop-color="#DAA520"/>
<stop offset="1" stop-color="#FFEB3B"/>
</linearGradient>
<linearGradient id="paint8_linear_114_1308" x1="439.37" y1="-24.5645" x2="408.706" y2="709.789" gradientUnits="userSpaceOnUse">
<stop stop-color="#FFA500"/>
<stop offset="1" stop-color="#FFD700"/>
</linearGradient>
</defs>
</svg>
